<svg xmlns="http://www.w3.org/2000/svg" xmlns:xlink="http://www.w3.org/1999/xlink" width="600" zoomAndPan="magnify" viewBox="0 0 450 168.749997" height="225" preserveAspectRatio="xMidYMid meet" version="1.0"><defs><g/></defs><g fill="#5b4f47" fill-opacity="1"><g transform="translate(23.427922, 106.716893)"><g><path d="M 21.28125 0 C 19.082031 0 16.976562 -0.679688 14.96875 -2.046875 C 12.957031 -3.410156 11.304688 -5.570312 10.015625 -8.53125 C 8.722656 -11.488281 8.078125 -15.398438 8.078125 -20.265625 C 8.078125 -25.492188 9.234375 -31.921875 11.546875 -39.546875 C 13.867188 -47.179688 17.835938 -56.15625 23.453125 -66.46875 C 20.109375 -67.457031 16.972656 -67.628906 14.046875 -66.984375 C 11.128906 -66.335938 8.796875 -65.140625 7.046875 -63.390625 C 5.304688 -61.648438 4.4375 -59.566406 4.4375 -57.140625 C 4.4375 -55.546875 4.851562 -54.195312 5.6875 -53.09375 C 6.519531 -52 7.546875 -51.453125 8.765625 -51.453125 C 9.296875 -50.234375 9.332031 -48.769531 8.875 -47.0625 C 8.425781 -45.351562 7.535156 -43.722656 6.203125 -42.171875 C 4.878906 -40.617188 3.171875 -39.3125 1.078125 -38.25 C -1.003906 -37.1875 -3.410156 -36.65625 -6.140625 -36.65625 C -9.253906 -36.65625 -11.875 -37.429688 -14 -38.984375 C -16.125 -40.535156 -17.71875 -42.601562 -18.78125 -45.1875 C -19.84375 -47.769531 -20.375 -50.503906 -20.375 -53.390625 C -20.375 -57.640625 -19.367188 -61.640625 -17.359375 -65.390625 C -15.347656 -69.148438 -12.5 -72.488281 -8.8125 -75.40625 C -5.132812 -78.332031 -0.8125 -80.609375 4.15625 -82.234375 C 9.125 -83.867188 14.609375 -84.6875 20.609375 -84.6875 C 26.140625 -84.6875 30.117188 -83.945312 32.546875 -82.46875 C 34.984375 -80.988281 36.351562 -78.84375 36.65625 -76.03125 C 36.957031 -73.226562 36.648438 -69.890625 35.734375 -66.015625 C 33.390625 -55.921875 31.628906 -47.988281 30.453125 -42.21875 C 29.273438 -36.457031 28.816406 -32.398438 29.078125 -30.046875 C 29.347656 -27.691406 30.46875 -26.515625 32.4375 -26.515625 C 34.5625 -26.515625 36.550781 -28.46875 38.40625 -32.375 C 40.269531 -36.289062 42.414062 -42.648438 44.84375 -51.453125 C 46.207031 -56.304688 47.328125 -60.648438 48.203125 -64.484375 C 49.078125 -68.316406 49.96875 -71.5625 50.875 -74.21875 C 51.789062 -76.875 52.96875 -78.898438 54.40625 -80.296875 C 55.851562 -81.703125 57.828125 -82.40625 60.328125 -82.40625 C 62.828125 -82.40625 65.082031 -81.6875 67.09375 -80.25 C 69.113281 -78.8125 70.125 -76.6875 70.125 -73.875 C 70.125 -71.21875 69.476562 -68.578125 68.1875 -65.953125 C 66.894531 -63.335938 65.488281 -60.609375 63.96875 -57.765625 C 62.445312 -54.921875 61.3125 -51.753906 60.5625 -48.265625 C 59.039062 -40.671875 58.617188 -35.144531 59.296875 -31.6875 C 59.984375 -28.238281 60.972656 -26.515625 62.265625 -26.515625 C 63.785156 -26.515625 65.078125 -27.40625 66.140625 -29.1875 C 67.203125 -30.976562 68.222656 -33.390625 69.203125 -36.421875 C 70.191406 -39.460938 71.253906 -42.765625 72.390625 -46.328125 C 76.867188 -60.742188 82.03125 -71.117188 87.875 -77.453125 C 93.71875 -83.796875 100.320312 -86.96875 107.6875 -86.96875 C 111.9375 -86.96875 115.289062 -86.113281 117.75 -84.40625 C 120.21875 -82.695312 121.867188 -80.570312 122.703125 -78.03125 C 123.535156 -75.488281 123.570312 -72.925781 122.8125 -70.34375 C 122.0625 -67.757812 120.625 -65.613281 118.5 -63.90625 C 116.375 -62.207031 113.566406 -61.359375 110.078125 -61.359375 C 108.171875 -61.359375 106.765625 -61.546875 105.859375 -61.921875 C 104.953125 -62.296875 104.15625 -62.671875 103.46875 -63.046875 C 102.789062 -63.429688 101.804688 -63.625 100.515625 -63.625 C 97.328125 -63.625 94.742188 -62.46875 92.765625 -60.15625 C 90.796875 -57.84375 89.203125 -54.804688 87.984375 -51.046875 C 86.773438 -47.296875 85.695312 -43.160156 84.75 -38.640625 C 83.800781 -34.128906 82.796875 -29.597656 81.734375 -25.046875 C 80.671875 -20.492188 79.300781 -16.335938 77.625 -12.578125 C 75.957031 -8.816406 73.757812 -5.78125 71.03125 -3.46875 C 68.300781 -1.15625 64.8125 0 60.5625 0 C 57.976562 0 55.582031 -0.703125 53.375 -2.109375 C 51.175781 -3.515625 49.546875 -5.90625 48.484375 -9.28125 C 47.421875 -12.65625 47.347656 -17.226562 48.265625 -23 C 48.492188 -24.4375 48.320312 -25.398438 47.75 -25.890625 C 47.175781 -26.390625 46.472656 -26.410156 45.640625 -25.953125 C 44.804688 -25.492188 44.160156 -24.507812 43.703125 -23 C 41.960938 -17.070312 39.800781 -12.4375 37.21875 -9.09375 C 34.644531 -5.757812 31.972656 -3.410156 29.203125 -2.046875 C 26.429688 -0.679688 23.789062 0 21.28125 0 Z M 21.28125 0 "/></g></g></g><g fill="#5b4f47" fill-opacity="1"><g transform="translate(111.0691, 106.716893)"><g><path d="M 12.0625 0 C 8.195312 0 5.273438 -1.59375 3.296875 -4.78125 C 1.328125 -7.96875 0.34375 -12.101562 0.34375 -17.1875 C 0.34375 -20.375 0.738281 -23.769531 1.53125 -27.375 C 2.332031 -30.976562 3.507812 -34.523438 5.0625 -38.015625 C 6.625 -41.503906 8.578125 -44.671875 10.921875 -47.515625 C 13.273438 -50.367188 16.007812 -52.648438 19.125 -54.359375 C 22.238281 -56.066406 25.765625 -56.921875 29.703125 -56.921875 C 31.984375 -56.921875 33.75 -56.707031 35 -56.28125 C 36.25 -55.863281 37.195312 -55.351562 37.84375 -54.75 C 38.488281 -54.144531 39.039062 -53.632812 39.5 -53.21875 C 39.957031 -52.800781 40.5625 -52.59375 41.3125 -52.59375 C 42.601562 -52.59375 43.644531 -52.953125 44.4375 -53.671875 C 45.238281 -54.390625 46.132812 -55.109375 47.125 -55.828125 C 48.113281 -56.554688 49.476562 -56.921875 51.21875 -56.921875 C 52.738281 -56.921875 53.78125 -56.539062 54.34375 -55.78125 C 54.914062 -55.019531 55.203125 -53.992188 55.203125 -52.703125 C 55.203125 -50.578125 54.613281 -48.46875 53.4375 -46.375 C 52.257812 -44.289062 51.03125 -41.582031 49.75 -38.25 C 47.84375 -34.070312 47.132812 -30.882812 47.625 -28.6875 C 48.125 -26.488281 49.628906 -25.390625 52.140625 -25.390625 C 54.109375 -25.390625 55.8125 -25.898438 57.25 -26.921875 C 58.695312 -27.941406 59.988281 -29.363281 61.125 -31.1875 C 61.726562 -32.101562 62.503906 -32.425781 63.453125 -32.15625 C 64.398438 -31.894531 65.195312 -31.382812 65.84375 -30.625 C 66.488281 -29.863281 66.625 -29.101562 66.25 -28.34375 C 64.882812 -25.6875 63.421875 -22.742188 61.859375 -19.515625 C 60.304688 -16.296875 58.582031 -13.207031 56.6875 -10.25 C 54.789062 -7.289062 52.628906 -4.84375 50.203125 -2.90625 C 47.773438 -0.96875 44.96875 0 41.78125 0 C 37.832031 0 35.039062 -1.59375 33.40625 -4.78125 C 31.78125 -7.96875 31.304688 -11.914062 31.984375 -16.625 L 31.53125 -16.625 C 29.25 -11.988281 26.4375 -8.054688 23.09375 -4.828125 C 19.757812 -1.609375 16.082031 0 12.0625 0 Z M 23.453125 -23.5625 C 25.421875 -23.5625 27.144531 -24.128906 28.625 -25.265625 C 30.101562 -26.410156 31.257812 -27.796875 32.09375 -29.421875 C 32.9375 -31.054688 33.359375 -32.671875 33.359375 -34.265625 C 33.359375 -36.160156 32.828125 -37.640625 31.765625 -38.703125 C 30.703125 -39.765625 29.257812 -40.296875 27.4375 -40.296875 C 25.457031 -40.296875 23.742188 -39.765625 22.296875 -38.703125 C 20.859375 -37.640625 19.738281 -36.289062 18.9375 -34.65625 C 18.144531 -33.03125 17.75 -31.378906 17.75 -29.703125 C 17.75 -27.804688 18.257812 -26.304688 19.28125 -25.203125 C 20.3125 -24.109375 21.703125 -23.5625 23.453125 -23.5625 Z M 23.453125 -23.5625 "/></g></g></g><g fill="#5b4f47" fill-opacity="1"><g transform="translate(169.572432, 106.716893)"><g><path d="M 46.78125 -31.1875 C 47.382812 -32.101562 48.160156 -32.425781 49.109375 -32.15625 C 50.066406 -31.894531 50.863281 -31.382812 51.5 -30.625 C 52.144531 -29.863281 52.28125 -29.101562 51.90625 -28.34375 C 51.300781 -27.050781 50.410156 -25.25 49.234375 -22.9375 C 48.054688 -20.625 46.570312 -18.15625 44.78125 -15.53125 C 43 -12.914062 40.835938 -10.429688 38.296875 -8.078125 C 35.753906 -5.722656 32.832031 -3.804688 29.53125 -2.328125 C 26.238281 -0.847656 22.46875 -0.109375 18.21875 -0.109375 C 13.207031 -0.109375 9.238281 -1.171875 6.3125 -3.296875 C 3.394531 -5.421875 1.40625 -8.113281 0.34375 -11.375 C -0.71875 -14.644531 -1.019531 -18.0625 -0.5625 -21.625 C -0.113281 -25.195312 0.945312 -28.382812 2.625 -31.1875 L 3.078125 -31.875 C 5.117188 -34.601562 7.144531 -37.578125 9.15625 -40.796875 C 11.164062 -44.023438 13.234375 -47.0625 15.359375 -49.90625 C 17.484375 -52.757812 19.6875 -55.113281 21.96875 -56.96875 C 24.25 -58.832031 26.601562 -59.765625 29.03125 -59.765625 C 32.59375 -59.765625 35.226562 -58.925781 36.9375 -57.25 C 38.644531 -55.582031 39.460938 -53.835938 39.390625 -52.015625 C 39.390625 -51.109375 38.988281 -50.347656 38.1875 -49.734375 C 37.394531 -49.128906 36.445312 -48.582031 35.34375 -48.09375 C 34.238281 -47.601562 33.269531 -46.992188 32.4375 -46.265625 C 31.601562 -45.546875 31.1875 -44.617188 31.1875 -43.484375 C 31.1875 -42.796875 31.71875 -41.425781 32.78125 -39.375 C 33.84375 -37.332031 34.976562 -35.039062 36.1875 -32.5 C 37.40625 -29.957031 38.242188 -27.507812 38.703125 -25.15625 C 40.441406 -25.226562 41.9375 -25.832031 43.1875 -26.96875 C 44.445312 -28.113281 45.644531 -29.519531 46.78125 -31.1875 Z M 14.109375 -23.5625 C 16.617188 -23.5625 18.554688 -24.359375 19.921875 -25.953125 C 21.285156 -27.546875 21.96875 -29.519531 21.96875 -31.875 C 21.96875 -33.238281 21.757812 -34.640625 21.34375 -36.078125 C 20.925781 -37.523438 20.300781 -39.003906 19.46875 -40.515625 C 18.707031 -42.035156 17.796875 -42.035156 16.734375 -40.515625 C 15.285156 -38.390625 13.742188 -36.242188 12.109375 -34.078125 C 10.484375 -31.921875 9.023438 -30.007812 7.734375 -28.34375 C 7.734375 -26.976562 8.320312 -25.835938 9.5 -24.921875 C 10.675781 -24.015625 12.210938 -23.5625 14.109375 -23.5625 Z M 14.109375 -23.5625 "/></g></g></g><g fill="#5b4f47" fill-opacity="1"><g transform="translate(213.620656, 106.716893)"><g><path d="M 11.5 0 C 7.25 0 4.117188 -1.304688 2.109375 -3.921875 C 0.0976562 -6.546875 -0.90625 -9.960938 -0.90625 -14.171875 C -0.90625 -18.378906 -0.0703125 -22.914062 1.59375 -27.78125 C 2.582031 -30.65625 3.679688 -33.757812 4.890625 -37.09375 C 6.109375 -40.4375 7.4375 -44.082031 8.875 -48.03125 C 7.207031 -48.03125 5.9375 -48.46875 5.0625 -49.34375 C 4.1875 -50.21875 3.613281 -51.242188 3.34375 -52.421875 C 3.082031 -53.597656 3.082031 -54.617188 3.34375 -55.484375 C 3.613281 -56.359375 4.09375 -56.796875 4.78125 -56.796875 C 8.125 -56.796875 10.742188 -57.722656 12.640625 -59.578125 C 14.535156 -61.441406 15.863281 -63.398438 16.625 -65.453125 C 17.988281 -68.785156 19.3125 -70.890625 20.59375 -71.765625 C 21.882812 -72.640625 23.253906 -73.078125 24.703125 -73.078125 C 26.828125 -73.078125 28.15625 -72.1875 28.6875 -70.40625 C 29.21875 -68.625 28.609375 -65.945312 26.859375 -62.375 C 26.023438 -60.550781 25.570312 -59.164062 25.5 -58.21875 C 25.425781 -57.269531 25.921875 -56.796875 26.984375 -56.796875 L 32.890625 -56.796875 C 33.648438 -56.796875 34.144531 -56.265625 34.375 -55.203125 C 34.601562 -54.140625 34.582031 -52.925781 34.3125 -51.5625 C 34.050781 -50.195312 33.5625 -48.984375 32.84375 -47.921875 C 32.125 -46.859375 31.191406 -46.328125 30.046875 -46.328125 C 26.554688 -46.328125 23.976562 -46.191406 22.3125 -45.921875 C 20.644531 -45.660156 19.46875 -45 18.78125 -43.9375 C 18.09375 -42.875 17.375 -41.050781 16.625 -38.46875 C 15.40625 -34.53125 15.570312 -31.382812 17.125 -29.03125 C 18.6875 -26.675781 21.132812 -25.5 24.46875 -25.5 C 26.75 -25.5 28.78125 -26.007812 30.5625 -27.03125 C 32.34375 -28.0625 33.800781 -29.445312 34.9375 -31.1875 C 35.550781 -32.101562 36.332031 -32.425781 37.28125 -32.15625 C 38.226562 -31.894531 39.023438 -31.382812 39.671875 -30.625 C 40.316406 -29.863281 40.445312 -29.101562 40.0625 -28.34375 C 39.382812 -27.050781 38.472656 -25.265625 37.328125 -22.984375 C 36.191406 -20.710938 34.828125 -18.25 33.234375 -15.59375 C 31.640625 -12.9375 29.78125 -10.429688 27.65625 -8.078125 C 25.53125 -5.722656 23.117188 -3.785156 20.421875 -2.265625 C 17.734375 -0.753906 14.757812 0 11.5 0 Z M 11.5 0 "/></g></g></g><g fill="#5b4f47" fill-opacity="1"><g transform="translate(245.945458, 106.716893)"><g><path d="M 21.40625 0 C 16.84375 0 13.101562 -1.019531 10.1875 -3.0625 C 7.269531 -5.113281 5.109375 -7.828125 3.703125 -11.203125 C 2.296875 -14.585938 1.609375 -18.304688 1.640625 -22.359375 C 1.679688 -26.421875 2.382812 -30.484375 3.75 -34.546875 C 5.125 -38.609375 7.097656 -42.328125 9.671875 -45.703125 C 12.253906 -49.078125 15.382812 -51.789062 19.0625 -53.84375 C 22.75 -55.894531 26.90625 -56.921875 31.53125 -56.921875 C 35.09375 -56.921875 37.992188 -56.253906 40.234375 -54.921875 C 42.472656 -53.597656 44.125 -51.832031 45.1875 -49.625 C 46.25 -47.425781 46.78125 -45.078125 46.78125 -42.578125 C 46.78125 -39.835938 46.019531 -37.101562 44.5 -34.375 C 42.988281 -31.644531 40.863281 -29.382812 38.125 -27.59375 C 35.394531 -25.8125 32.171875 -24.921875 28.453125 -24.921875 C 26.859375 -24.921875 25.300781 -25.035156 23.78125 -25.265625 C 22.269531 -25.492188 20.867188 -25.988281 19.578125 -26.75 C 19.203125 -26.976562 18.785156 -26.992188 18.328125 -26.796875 C 17.867188 -26.609375 17.640625 -26.140625 17.640625 -25.390625 C 17.640625 -23.410156 18.796875 -21.90625 21.109375 -20.875 C 23.429688 -19.851562 26.222656 -19.34375 29.484375 -19.34375 C 33.347656 -19.34375 37.347656 -20.328125 41.484375 -22.296875 C 45.617188 -24.273438 48.976562 -27.238281 51.5625 -31.1875 C 52.164062 -32.101562 52.960938 -32.425781 53.953125 -32.15625 C 54.941406 -31.894531 55.757812 -31.382812 56.40625 -30.625 C 57.050781 -29.863281 57.144531 -29.101562 56.6875 -28.34375 C 51.675781 -19.082031 46.191406 -12.039062 40.234375 -7.21875 C 34.273438 -2.40625 28 0 21.40625 0 Z M 25.5 -33.46875 C 27.695312 -33.46875 29.421875 -34.164062 30.671875 -35.5625 C 31.929688 -36.96875 32.5625 -38.394531 32.5625 -39.84375 C 32.5625 -41.132812 32.125 -42.234375 31.25 -43.140625 C 30.375 -44.046875 29.0625 -44.5 27.3125 -44.5 C 25.113281 -44.5 23.367188 -43.816406 22.078125 -42.453125 C 20.785156 -41.085938 20.140625 -39.644531 20.140625 -38.125 C 20.140625 -36.914062 20.578125 -35.835938 21.453125 -34.890625 C 22.328125 -33.941406 23.675781 -33.46875 25.5 -33.46875 Z M 25.5 -33.46875 "/></g></g></g><g fill="#5b4f47" fill-opacity="1"><g transform="translate(294.887924, 106.716893)"><g><path d="M 39.953125 -87.078125 C 43.597656 -87.078125 46.273438 -86.257812 47.984375 -84.625 C 49.691406 -83 50.640625 -81.007812 50.828125 -78.65625 C 51.015625 -76.300781 50.691406 -73.925781 49.859375 -71.53125 C 49.023438 -69.144531 47.828125 -67.132812 46.265625 -65.5 C 44.710938 -63.875 43.0625 -63.0625 41.3125 -63.0625 C 39.71875 -63.0625 38.921875 -63.628906 38.921875 -64.765625 C 38.921875 -68.410156 37.519531 -70.234375 34.71875 -70.234375 C 32.289062 -70.234375 30.179688 -68.960938 28.390625 -66.421875 C 26.609375 -63.878906 25.078125 -60.671875 23.796875 -56.796875 L 35.734375 -56.796875 C 36.492188 -56.796875 36.988281 -56.265625 37.21875 -55.203125 C 37.445312 -54.140625 37.425781 -52.925781 37.15625 -51.5625 C 36.894531 -50.195312 36.40625 -48.984375 35.6875 -47.921875 C 34.96875 -46.859375 34.035156 -46.328125 32.890625 -46.328125 C 33.046875 -46.328125 31.945312 -46.441406 29.59375 -46.671875 C 27.238281 -46.898438 24.429688 -47.128906 21.171875 -47.359375 C 20.265625 -43.179688 19.523438 -39.003906 18.953125 -34.828125 C 18.378906 -30.660156 17.90625 -27.054688 17.53125 -24.015625 C 17.226562 -21.210938 16.960938 -18.40625 16.734375 -15.59375 C 16.503906 -12.789062 16.066406 -10.210938 15.421875 -7.859375 C 14.773438 -5.503906 13.726562 -3.601562 12.28125 -2.15625 C 10.84375 -0.71875 8.722656 0 5.921875 0 C 2.429688 0 0.175781 -1.132812 -0.84375 -3.40625 C -1.875 -5.6875 -2.007812 -9.140625 -1.25 -13.765625 C -0.488281 -18.398438 0.800781 -24.207031 2.625 -31.1875 C 3.457031 -34.144531 4.289062 -37.046875 5.125 -39.890625 C 5.957031 -42.742188 6.828125 -45.5 7.734375 -48.15625 L 6.140625 -48.15625 C 3.484375 -48.15625 1.703125 -48.585938 0.796875 -49.453125 C -0.109375 -50.328125 -0.46875 -51.332031 -0.28125 -52.46875 C -0.09375 -53.613281 0.378906 -54.617188 1.140625 -55.484375 C 1.898438 -56.359375 2.617188 -56.796875 3.296875 -56.796875 L 10.921875 -56.796875 C 13.347656 -62.867188 16.003906 -68.160156 18.890625 -72.671875 C 21.773438 -77.191406 24.960938 -80.722656 28.453125 -83.265625 C 31.941406 -85.804688 35.773438 -87.078125 39.953125 -87.078125 Z M 39.953125 -87.078125 "/></g></g></g><g fill="#5b4f47" fill-opacity="1"><g transform="translate(324.367236, 106.716893)"><g><path d="M 59.53125 -31.1875 C 60.132812 -32.101562 60.929688 -32.425781 61.921875 -32.15625 C 62.910156 -31.894531 63.726562 -31.382812 64.375 -30.625 C 65.019531 -29.863281 65.113281 -29.101562 64.65625 -28.34375 C 63.894531 -27.125 62.984375 -25.359375 61.921875 -23.046875 C 60.859375 -20.734375 59.585938 -18.265625 58.109375 -15.640625 C 56.628906 -13.023438 54.898438 -10.519531 52.921875 -8.125 C 50.953125 -5.738281 48.734375 -3.785156 46.265625 -2.265625 C 43.804688 -0.753906 41.019531 0 37.90625 0 C 31.375 0 28.109375 -4.132812 28.109375 -12.40625 C 28.109375 -13.84375 28.222656 -15.398438 28.453125 -17.078125 C 27.242188 -14.421875 25.765625 -11.78125 24.015625 -9.15625 C 22.273438 -6.539062 20.265625 -4.378906 17.984375 -2.671875 C 15.703125 -0.960938 13.082031 -0.109375 10.125 -0.109375 C 7.09375 -0.109375 4.664062 -1.207031 2.84375 -3.40625 C 1.019531 -5.613281 0.109375 -9.03125 0.109375 -13.65625 C 0.109375 -15.40625 0.238281 -17.832031 0.5 -20.9375 C 0.769531 -24.050781 1.476562 -27.46875 2.625 -31.1875 C 5.28125 -39.53125 7.953125 -45.90625 10.640625 -50.3125 C 13.335938 -54.71875 16.28125 -56.921875 19.46875 -56.921875 C 21.820312 -56.921875 23 -55.398438 23 -52.359375 C 23 -49.929688 22.5625 -47.460938 21.6875 -44.953125 C 20.8125 -42.453125 19.957031 -40.003906 19.125 -37.609375 C 18.289062 -35.222656 17.875 -32.894531 17.875 -30.625 C 17.875 -29.03125 18.195312 -27.773438 18.84375 -26.859375 C 19.488281 -25.953125 20.757812 -25.5 22.65625 -25.5 C 24.695312 -25.5 26.550781 -26.125 28.21875 -27.375 C 29.894531 -28.625 31.226562 -30.65625 32.21875 -33.46875 L 32.328125 -33.921875 C 34.679688 -41.359375 37.070312 -47.050781 39.5 -51 C 41.925781 -54.945312 44.582031 -56.921875 47.46875 -56.921875 C 48.601562 -56.921875 49.472656 -56.578125 50.078125 -55.890625 C 50.691406 -55.203125 51 -54.023438 51 -52.359375 C 51 -50.234375 50.5625 -47.9375 49.6875 -45.46875 C 48.8125 -43.007812 47.957031 -40.5625 47.125 -38.125 C 46.289062 -35.695312 45.875 -33.535156 45.875 -31.640625 C 45.875 -29.515625 46.460938 -27.941406 47.640625 -26.921875 C 48.816406 -25.898438 50.160156 -25.390625 51.671875 -25.390625 C 53.421875 -25.390625 54.882812 -25.9375 56.0625 -27.03125 C 57.238281 -28.132812 58.394531 -29.519531 59.53125 -31.1875 Z M 59.53125 -31.1875 "/></g></g></g><g fill="#5b4f47" fill-opacity="1"><g transform="translate(381.277085, 106.716893)"><g><path d="M 9.671875 0 C 5.648438 0 2.84375 -1.117188 1.25 -3.359375 C -0.34375 -5.597656 -1.140625 -8.382812 -1.140625 -11.71875 C -1.140625 -14.601562 -0.773438 -17.753906 -0.046875 -21.171875 C 0.671875 -24.585938 1.597656 -27.925781 2.734375 -31.1875 C 6.597656 -42.269531 9.878906 -51.566406 12.578125 -59.078125 C 15.273438 -66.585938 17.875 -72.257812 20.375 -76.09375 C 22.875 -79.925781 25.644531 -81.84375 28.6875 -81.84375 C 31.039062 -81.84375 32.519531 -80.953125 33.125 -79.171875 C 33.726562 -77.390625 33.160156 -74.710938 31.421875 -71.140625 C 28.304688 -64.835938 25.628906 -59.007812 23.390625 -53.65625 C 21.148438 -48.3125 19.382812 -43.25 18.09375 -38.46875 C 17.488281 -36.269531 17.050781 -34.164062 16.78125 -32.15625 C 16.519531 -30.144531 16.769531 -28.515625 17.53125 -27.265625 C 18.289062 -26.015625 19.804688 -25.390625 22.078125 -25.390625 C 24.054688 -25.390625 25.785156 -25.898438 27.265625 -26.921875 C 28.742188 -27.941406 30.085938 -29.363281 31.296875 -31.1875 C 31.910156 -32.101562 32.707031 -32.425781 33.6875 -32.15625 C 34.675781 -31.894531 35.492188 -31.382812 36.140625 -30.625 C 36.785156 -29.863281 36.878906 -29.101562 36.421875 -28.34375 C 35.660156 -27.125 34.75 -25.359375 33.6875 -23.046875 C 32.625 -20.734375 31.351562 -18.265625 29.875 -15.640625 C 28.394531 -13.023438 26.664062 -10.519531 24.6875 -8.125 C 22.71875 -5.738281 20.5 -3.785156 18.03125 -2.265625 C 15.570312 -0.753906 12.785156 0 9.671875 0 Z M 9.671875 0 "/></g></g></g><g fill="#5b4f47" fill-opacity="1"><g transform="translate(409.959673, 106.716893)"><g><path d="M 9.671875 0 C 5.648438 0 2.84375 -1.117188 1.25 -3.359375 C -0.34375 -5.597656 -1.140625 -8.382812 -1.140625 -11.71875 C -1.140625 -14.601562 -0.773438 -17.753906 -0.046875 -21.171875 C 0.671875 -24.585938 1.597656 -27.925781 2.734375 -31.1875 C 6.597656 -42.269531 9.878906 -51.566406 12.578125 -59.078125 C 15.273438 -66.585938 17.875 -72.257812 20.375 -76.09375 C 22.875 -79.925781 25.644531 -81.84375 28.6875 -81.84375 C 31.039062 -81.84375 32.519531 -80.953125 33.125 -79.171875 C 33.726562 -77.390625 33.160156 -74.710938 31.421875 -71.140625 C 28.304688 -64.835938 25.628906 -59.007812 23.390625 -53.65625 C 21.148438 -48.3125 19.382812 -43.25 18.09375 -38.46875 C 17.488281 -36.269531 17.050781 -34.164062 16.78125 -32.15625 C 16.519531 -30.144531 16.769531 -28.515625 17.53125 -27.265625 C 18.289062 -26.015625 19.804688 -25.390625 22.078125 -25.390625 C 24.054688 -25.390625 25.785156 -25.898438 27.265625 -26.921875 C 28.742188 -27.941406 30.085938 -29.363281 31.296875 -31.1875 C 31.910156 -32.101562 32.707031 -32.425781 33.6875 -32.15625 C 34.675781 -31.894531 35.492188 -31.382812 36.140625 -30.625 C 36.785156 -29.863281 36.878906 -29.101562 36.421875 -28.34375 C 35.660156 -27.125 34.75 -25.359375 33.6875 -23.046875 C 32.625 -20.734375 31.351562 -18.265625 29.875 -15.640625 C 28.394531 -13.023438 26.664062 -10.519531 24.6875 -8.125 C 22.71875 -5.738281 20.5 -3.785156 18.03125 -2.265625 C 15.570312 -0.753906 12.785156 0 9.671875 0 Z M 9.671875 0 "/></g></g></g></svg>